<?xml version="1.0" encoding="utf-8"?>
<!-- Generator: Adobe Illustrator 15.1.0, SVG Export Plug-In . SVG Version: 6.00 Build 0)  -->
<!DOCTYPE svg PUBLIC "-//W3C//DTD SVG 1.1//EN" "http://www.w3.org/Graphics/SVG/1.1/DTD/svg11.dtd">
<svg version="1.1" id="Layer_1" xmlns="http://www.w3.org/2000/svg" xmlns:xlink="http://www.w3.org/1999/xlink" x="0px" y="0px"
	 width="455px" height="141px" viewBox="0 0 455 141" enable-background="new 0 0 455 141" xml:space="preserve">
<g>
	<g>
		<path fill="#00457D" d="M227.007,81.021V45.899c0-2.585-3.486-3.324-3.486-3.324h-7.512v52.602h41.148
			c0,0,3.418,0.442,3.418-3.627v-6.712h-29.278C226.303,84.838,227.007,81.021,227.007,81.021z"/>
		<path fill="#00457D" d="M94.434,66.941c0.292-0.309,0.587-0.651,0.872-1.017c1.74-2.325,2.744-5.436,2.744-8.54
			c0-4.403-1.918-8.485-5.21-11.171c-4.299-3.639-9.16-3.639-13.066-3.639H48.831c-5.028,0-5.61,3.554-5.61,3.554v49.048h39.168
			c5.4,0,9.619-1.18,12.547-3.515c3.465-2.78,5.456-7.276,5.456-12.333C100.392,74.159,98.186,69.657,94.434,66.941z M54.209,55.526
			c0-2.438,2.144-2.737,4.113-2.737h21.521c3.117,0,4.489,0.465,5.076,0.842c0.931,0.604,1.933,2.006,1.933,4.082
			c0,0.953-0.156,2.21-1.311,3.292c-1.619,1.496-4.162,1.623-6.42,1.623H54.209C54.209,62.628,54.209,57.293,54.209,55.526z
			 M87.994,83.171c-1.387,1.465-3.681,1.667-5.74,1.667H54.209V73.035h24.59c6.109,0,8.129,1.191,8.793,1.911l0.237,0.225
			c0.247,0.225,1.508,1.464,1.508,4.224C89.337,81.596,88.313,82.844,87.994,83.171z"/>
		<path fill="#00457D" d="M275.367,72.909h34.021c2.91,0,2.615-2.552,2.615-2.552v-7.794h-36.636v-5.625v-0.365
			c0-0.35,0-0.664,0-0.911c0-2.434,2.139-2.731,4.1-2.731h1.354l0.919-0.012h30.277c0,0,2.995,0.169,2.995-2.836v-7.508h-45.712
			c-5.296,0-4.934,3.653-4.934,3.653v48.948h49.716c0,0,2.821,0.154,2.821-2.851v-7.488h-41.537V72.909z"/>
		<path fill="#00457D" d="M164.073,85.569c6.737-0.013,16.994-0.025,20.938-0.025c0.412,0,0.922-0.004,1.496-0.029
			c4.117-0.123,13.779,0.18,14.698-5.184c0.063-0.329,0.115-0.576,0.093-0.837c-0.178-2.11-1.174-5.867-15.355-6.512
			c-7.804-0.324-13.352-0.577-18.072-2.363c-5.688-2.128-8.656-6.1-8.833-11.801l-0.042-0.501c0-9.716,7.998-15.143,22.389-15.763
			c0.812-0.027,1.642-0.056,2.498-0.056l1.019,0.013l0.43-0.013c6.665,0,13.194,0.038,24.426,0.063v6.646
			c0,3.58-4.154,3.271-4.154,3.271c-9.205-0.018-15.103-0.033-19.387-0.033c-0.397,0-0.917,0.008-1.489,0.028l-0.589-0.031
			c-0.672,0-1.624,0.014-2.733,0.088c-4.286,0.245-11.17,0.87-11.17,4.98c0,0.315,0.026,0.588,0.085,0.845
			c0.386,1.537,2.073,3.482,13.84,3.992l0.697,0.032c7.966,0.308,14.259,1.453,19.239,3.602c5.798,2.491,8.726,6.958,8.726,13.257
			c0,0.314-0.007,0.664-0.025,1.026v0.121l-0.069,0.557c-0.539,5.817-3.38,13.726-24.104,14.228l-0.094,0.058l-0.675-0.02
			l-0.782,0.02c-7.18,0-14.37-0.035-22.927-0.049c0,0.005-3.376-6.823-3.376-6.823S159.561,85.589,164.073,85.569z"/>
		<path fill="#F49F22" d="M399.655,24.943c-4.828-4.796-11.15-5.319-11.15-5.319c-12.552,5.355-25.167,12.998-25.167,12.998
			s18.904-8.527,38.354-4.561C401.691,28.062,400.6,25.883,399.655,24.943z"/>
		<path fill="#00457D" d="M423.164,19.239c-5.54-8.361-20.504-5.461-30.104-2.511c2.751,0.752,17.985,2.026,12.463,25.177
			c-3.28,13.748-13.142,29.933-12.712,30.744C393.406,73.77,432.842,33.854,423.164,19.239z"/>
		<path fill="#00457D" d="M363.065,73.887c2.373-0.52,4.858-1.437,7.017-3.112c1.339-1.055,2.443-2.311,3.325-3.725
			c0.053-0.096,0.122-0.198,0.178-0.295c1.413-2.396,2.17-5.233,2.17-8.33c0-5.786-2.853-11.02-7.478-13.678
			c-3.939-2.172-8.424-2.172-11.696-2.172h-30.979c-3.942,0-4.148,3.097-4.148,3.097v49.505h8.093c0,0,2.84,0.057,2.84-3.322V74.606
			h13.491c0,0,0.208-0.005,0.538,0.031c0.102,0.003,1.071,0.021,2.51,0.025l14.313,16.29l0.022-0.011
			c1.029,1.169,1.716,1.945,1.716,1.945s1.873,2.331,5.88,2.289h11.102L363.065,73.887z M332.386,64.194v-8.384
			c0,0-0.397-2.954,3.555-2.954h20.766c2.248,0,4.382,0,5.91,1.181c0.844,0.623,1.828,2.102,1.828,4.194
			c0,1.559-0.522,3.095-1.36,3.997c-1.699,1.829-4.887,1.966-9.174,1.966H332.386z"/>
		<path fill="#00457D" d="M133.134,42.584h-3.372h-1.015c-4.661,0-5.011,0.7-6.461,3.763c-3,6.33-9.346,17.647-14.646,28.385
			c2.848-2.243,7.377-4.547,14.114-4.912l6.927-12.566l7.92,15.836h-15.679l0.021-0.036c-9.279,0.766-13.875,5.53-15.437,7.591
			c-3.617,7.286-6.303,12.7-6.303,12.7s-1.078,1.841,1.224,1.841h9.668L114.133,87c0,0,1.793-3.773,6.449-3.773h21.087
			c0,0,3.56,7.015,4.595,9.08c0.801,1.597,1.376,2.878,4.334,2.878h1.793c2.706,0,5.061,0.004,7.17,0.004L133.134,42.584z"/>
	</g>
	<g>
		<path fill="#00457D" d="M146.51,126.928v-8.413h-1.939v-1.833h1.939v-4.207h2.077v4.207h4.424v1.833h-4.424v8.146
			c0,1.695,0.944,2.315,2.349,2.315c0.699,0,1.294-0.133,2.021-0.482v1.779c-0.727,0.377-1.511,0.592-2.508,0.592
			C148.21,130.865,146.51,129.759,146.51,126.928z"/>
		<path fill="#00457D" d="M156.139,110.937h2.076v8.173c0.917-1.512,2.373-2.723,4.772-2.723c3.37,0,5.339,2.264,5.339,5.58v8.655
			h-2.075v-8.143c0-2.589-1.401-4.205-3.857-4.205c-2.398,0-4.179,1.75-4.179,4.367v7.98h-2.076V110.937z"/>
		<path fill="#00457D" d="M177.818,129.139c1.913,0,3.262-0.782,4.395-1.968l1.294,1.159c-1.401,1.563-3.101,2.615-5.744,2.615
			c-3.828,0-6.958-2.938-6.958-7.279c0-4.045,2.834-7.279,6.689-7.279c4.124,0,6.499,3.289,6.499,7.387c0,0.188,0,0.406-0.027,0.729
			h-11.057C173.207,127.44,175.365,129.139,177.818,129.139z M181.888,122.829c-0.24-2.533-1.696-4.689-4.447-4.689
			c-2.4,0-4.233,1.994-4.531,4.689H181.888z"/>
		<path fill="#00457D" d="M195.722,116.682h2.077v2.803c1.132-1.671,2.776-3.098,5.339-3.098c3.345,0,6.66,2.641,6.66,7.225v0.055
			c0,4.557-3.288,7.252-6.66,7.252c-2.59,0-4.262-1.401-5.339-2.966v6.984h-2.077V116.682z M207.667,123.691v-0.054
			c0-3.289-2.264-5.393-4.907-5.393c-2.59,0-5.043,2.184-5.043,5.366v0.055c0,3.237,2.453,5.393,5.043,5.393
			C205.458,129.059,207.667,127.063,207.667,123.691z"/>
		<path fill="#00457D" d="M212.657,123.719v-0.053c0-3.938,3.075-7.279,7.279-7.279c4.182,0,7.254,3.289,7.254,7.225v0.055
			c0,3.938-3.101,7.279-7.307,7.279C215.704,130.945,212.657,127.657,212.657,123.719z M225.062,123.719v-0.053
			c0-2.995-2.239-5.446-5.178-5.446c-3.02,0-5.098,2.451-5.098,5.392v0.055c0,2.995,2.212,5.42,5.15,5.42
			C222.957,129.086,225.062,126.661,225.062,123.719z"/>
		<path fill="#00457D" d="M227.918,116.682h2.213l3.666,11.19l3.75-11.243h1.727l3.773,11.243l3.667-11.19h2.158l-4.908,14.049
			h-1.808l-3.747-11.002l-3.775,11.002h-1.835L227.918,116.682z"/>
		<path fill="#00457D" d="M257.933,129.139c1.913,0,3.263-0.782,4.395-1.968l1.296,1.159c-1.403,1.563-3.103,2.615-5.745,2.615
			c-3.829,0-6.957-2.938-6.957-7.279c0-4.045,2.832-7.279,6.688-7.279c4.128,0,6.499,3.289,6.499,7.387c0,0.188,0,0.406-0.027,0.729
			h-11.057C253.322,127.44,255.479,129.139,257.933,129.139z M262.004,122.829c-0.241-2.533-1.696-4.689-4.448-4.689
			c-2.4,0-4.233,1.994-4.532,4.689H262.004z"/>
		<path fill="#00457D" d="M267.749,116.682h2.076v3.64c1.024-2.32,3.048-3.99,5.69-3.882v2.237h-0.162
			c-3.047,0-5.528,2.187-5.528,6.393v5.553h-2.076V116.682z"/>
		<path fill="#00457D" d="M284.895,123.719v-0.053c0-3.938,3.073-7.279,7.281-7.279c4.18,0,7.252,3.289,7.252,7.225v0.055
			c0,3.938-3.1,7.279-7.306,7.279C287.94,130.945,284.895,127.657,284.895,123.719z M297.3,123.719v-0.053
			c0-2.995-2.238-5.446-5.178-5.446c-3.021,0-5.097,2.451-5.097,5.392v0.055c0,2.995,2.211,5.42,5.15,5.42
			C295.194,129.086,297.3,126.661,297.3,123.719z"/>
		<path fill="#00457D" d="M303.419,118.515h-1.917v-1.808h1.917v-1.214c0-1.589,0.43-2.803,1.212-3.585
			c0.7-0.699,1.725-1.079,2.995-1.079c0.97,0,1.614,0.107,2.289,0.35v1.809c-0.755-0.216-1.319-0.351-2.021-0.351
			c-1.618,0-2.426,0.97-2.426,2.968v1.13h4.422v1.78h-4.396v12.107h-2.074V118.515z"/>
		<path fill="#F49F22" d="M319.459,128.844l1.052-1.483c1.511,1.134,3.182,1.778,4.828,1.778c1.672,0,2.884-0.862,2.884-2.211
			v-0.053c0-1.401-1.645-1.94-3.478-2.455c-2.184-0.621-4.611-1.374-4.611-3.937v-0.055c0-2.396,1.995-3.989,4.745-3.989
			c1.699,0,3.588,0.592,5.017,1.536l-0.944,1.563c-1.294-0.835-2.777-1.346-4.126-1.346c-1.645,0-2.696,0.863-2.696,2.021v0.053
			c0,1.323,1.725,1.835,3.587,2.402c2.158,0.647,4.478,1.483,4.478,3.992v0.053c0,2.643-2.187,4.181-4.964,4.181
			C323.233,130.895,321.025,130.112,319.459,128.844z"/>
		<path fill="#F49F22" d="M333.561,111.343h2.375v2.291h-2.375V111.343z M333.695,116.682h2.078v13.94h-2.078V116.682z"/>
		<path fill="#F49F22" d="M339.9,133.05l0.943-1.617c1.591,1.158,3.372,1.778,5.366,1.778c3.075,0,5.07-1.697,5.07-4.961v-1.645
			c-1.212,1.617-2.912,2.938-5.476,2.938c-3.342,0-6.552-2.508-6.552-6.527v-0.051c0-4.071,3.235-6.579,6.552-6.579
			c2.618,0,4.314,1.292,5.448,2.803v-2.508h2.076v11.515c0,2.159-0.646,3.805-1.779,4.934c-1.239,1.24-3.102,1.861-5.313,1.861
			C343.919,134.991,341.761,134.347,339.9,133.05z M351.335,122.991v-0.055c0-2.855-2.482-4.717-5.125-4.717
			s-4.827,1.832-4.827,4.691v0.055c0,2.803,2.238,4.746,4.827,4.746C348.853,127.712,351.335,125.797,351.335,122.991z"/>
		<path fill="#F49F22" d="M357.426,110.937h2.076v8.173c0.918-1.512,2.372-2.723,4.773-2.723c3.371,0,5.338,2.264,5.338,5.58v8.655
			h-2.074v-8.143c0-2.589-1.403-4.205-3.858-4.205c-2.398,0-4.179,1.75-4.179,4.367v7.98h-2.076V110.937z"/>
		<path fill="#F49F22" d="M374.225,126.928v-8.413h-1.941v-1.833h1.941v-4.207h2.076v4.207h4.424v1.833h-4.424v8.146
			c0,1.695,0.945,2.315,2.348,2.315c0.701,0,1.294-0.133,2.022-0.482v1.779c-0.729,0.377-1.513,0.592-2.508,0.592
			C375.923,130.865,374.225,129.759,374.225,126.928z"/>
	</g>
</g>
</svg>
